<?xml version="1.0" encoding="utf-8"?>
<!-- Generator: Adobe Illustrator 17.0.0, SVG Export Plug-In . SVG Version: 6.00 Build 0)  -->
<!DOCTYPE svg PUBLIC "-//W3C//DTD SVG 1.1//EN" "http://www.w3.org/Graphics/SVG/1.1/DTD/svg11.dtd">
<svg version="1.1" id="Capa_1" xmlns="http://www.w3.org/2000/svg" xmlns:xlink="http://www.w3.org/1999/xlink" x="0px" y="0px"
	 width="595.28px" height="841.89px" enable-background="new 0 0 595.28 841.89" xml:space="preserve">
<g>
	<path id="svg-color-change" d="M595.276,422.397c0.788-161.577-128.597-293.978-289.495-297.611l-0.279,57.187c15.122,4.532,32.647,27.243,46.069,60.408
		c5.438,13.425,10.16,28.147,14.134,43.893c-19.708-2.048-40.036-3.225-60.694-3.484l-0.275,56.437
		c24.72,0.329,48.793,2.052,71.659,5.107c3.031,24.525,4.543,50.424,4.413,77.017c-0.13,26.591-1.895,52.476-5.164,76.97
		c-22.893,2.832-46.983,4.32-71.705,4.405l-0.275,56.44c20.66-0.059,40.998-1.036,60.726-2.895
		c-4.128,15.706-8.993,30.382-14.561,43.756c-13.745,33.032-31.491,55.568-46.656,59.956l-0.279,57.187
		C463.818,715.104,594.488,583.973,595.276,422.397z M538.848,422.122c-0.079,16.188-24.122,36.359-61.258,51.385
		c-13.42,5.43-28.149,10.158-43.893,14.135c2.225-21.407,3.436-43.525,3.546-66.016c0.11-22.493-0.884-44.62-2.902-66.047
		c15.705,4.128,30.386,8.999,43.753,14.563C515.08,385.529,538.927,405.933,538.848,422.122z M519.777,327.265
		c-6.308-3.212-12.967-6.298-20.004-9.224c-22.115-9.202-47.143-16.737-74.164-22.453c-5.45-27.076-12.737-52.172-21.729-74.376
		c-2.861-7.07-5.88-13.758-9.03-20.091C450.9,225.641,495.797,270.981,519.777,327.265z M392.702,641.707
		c3.212-6.305,6.297-12.964,9.226-20.002c9.208-22.115,16.738-47.139,22.453-74.16c27.076-5.451,52.176-12.746,74.379-21.729
		c7.065-2.86,13.753-5.881,20.093-9.029C494.324,572.835,448.987,617.73,392.702,641.707z"/>
	<path d="M18.083,366.181l35.833,20.576c-1.566,10.781-2.422,21.788-2.476,32.986c-0.055,11.194,0.694,22.214,2.154,33.007
		l-36.032,20.225c-16.946,9.512-22.971,30.959-13.458,47.904l50.631,90.198c4.564,8.134,12.181,14.125,21.161,16.648
		c8.98,2.531,18.604,1.375,26.739-3.189l36.14-20.289c18.309,14.914,38.876,27.164,61.127,36.111l-0.202,41.32
		c-0.095,19.428,15.578,35.259,35.011,35.354l45.996,0.224l0.677-138.88c-84.257-3.434-151.547-73.25-151.133-158.245
		s68.383-154.154,152.669-156.767l0.677-138.877l-45.996-0.224c-19.433-0.095-35.259,15.58-35.354,35.007l-0.202,41.323
		c-22.338,8.731-43.023,20.777-61.477,35.513l-35.941-20.642c-5.327-3.057-11.313-4.645-17.35-4.675
		c-3.128-0.015-6.279,0.386-9.357,1.225c-9.004,2.431-16.679,8.351-21.323,16.439L5.092,318.147
		C-4.585,335,1.23,356.507,18.083,366.181z"/>
</g>
</svg>
